<svg id="Layer_1" data-name="Layer 1" xmlns="http://www.w3.org/2000/svg" viewBox="0 0 221.16 214.56"><defs><style>.cls-1{fill:#fff;}</style></defs><title>SENA</title><path class="cls-1" d="M137.74,30.56A24.46,24.46,0,1,1,113.28,6.11,24.45,24.45,0,0,1,137.74,30.56Z" transform="translate(-2.7 -6.11)"/><path class="cls-1" d="M36,70.28a3.27,3.27,0,0,0-2.4-2.19,14,14,0,0,0-4.31-.58c-3.68,0-5.31.67-5.31,1.83,0,4.81,29.26,1.83,29.26,13.5,0,7.45-9.82,11-23.81,11C16,93.89,7.23,89,6.88,83.16h16a4.24,4.24,0,0,0,2.76,2.54,13.59,13.59,0,0,0,4.74.8c4.17,0,6.92-.85,6.92-2.36C37.27,79.28,8,82.62,8,70.37c0-6.82,9.33-10.25,22-10.25,14.14,0,20.57,4.54,21.77,10.16Z" transform="translate(-2.7 -6.11)"/><path class="cls-1" d="M61,93.05V61h41.48v7.49H77.63V73h21v7.49h-21v5h25.79v7.49Z" transform="translate(-2.7 -6.11)"/><path class="cls-1" d="M145.26,78.48l-.63-7.31V61h16V93.05H145L126.82,75.58l.63,7.31V93.05h-16V61H127.1Z" transform="translate(-2.7 -6.11)"/><path class="cls-1" d="M166.25,93.05,184.49,61h17l18.23,32.09h-16.6l-2-4.24H184.49l-1.91,4.24Zm26.58-22.42-5.16,11.5H198.2Z" transform="translate(-2.7 -6.11)"/><polygon class="cls-1" points="220.69 93.93 118.71 93.93 178.07 199.35 191.16 187.95 143.68 108.65 221.16 108.46 220.69 93.93"/><polygon class="cls-1" points="0.47 93.93 102.45 93.93 43.09 199.35 30 187.95 77.49 108.65 0 108.46 0.47 93.93"/><polygon class="cls-1" points="54.45 207.81 110.11 111.77 167.35 206.87 152.23 213.69 111.38 140.65 67.89 214.56 54.45 207.81"/></svg>