<svg xmlns="http://www.w3.org/2000/svg" xmlns:xlink="http://www.w3.org/1999/xlink" viewBox="0 0 1920 1080"><defs><style>.cls-1{fill:none;}.cls-2{clip-path:url(#clip-path);}.cls-3{fill:#ff6b00;}.cls-4{fill:#232323;}.cls-5{font-size:100px;font-family:TypeheadRegular, Typehead;}.cls-5,.cls-6{fill:#fff;}</style><clipPath id="clip-path"><rect class="cls-1" width="1920" height="1080" transform="translate(1920 1080) rotate(-180)"/></clipPath></defs><title>fondo 1 completo</title><g id="Capa_2" data-name="Capa 2"><g class="cls-2"><rect class="cls-3" width="1920" height="1102.46"/><path class="cls-4" d="M1920,0S1296.63,87.5,926.85,606.06-218,1094-218,1094L-106.63-9.48S1892-27.23,1892-16,1920,0,1920,0Z"/><text class="cls-5" transform="translate(70.8 179.12)">AL LIMITE DEL CONOCIMIENTO<tspan x="0" y="120">INDUSTRIAL</tspan></text><image width="1280" height="852" transform="matrix(-1.15, 0, 0, 1.15, 1920.26, 100.78)" xlink:href="../tipo.png"/><path class="cls-6" d="M391,473a38.34,38.34,0,1,1-38.35-38.32h0A38.33,38.33,0,0,1,391,473Z"/><path class="cls-6" d="M231.53,535.3a5.15,5.15,0,0,0-3.76-3.44A22.07,22.07,0,0,0,221,531c-5.76,0-8.32,1-8.32,2.87,0,7.54,45.86,2.87,45.86,21.16,0,11.68-15.39,17.24-37.32,17.24-21,.08-34.79-7.58-35.34-16.74H211a6.62,6.62,0,0,0,4.32,4,21.41,21.41,0,0,0,7.43,1.26c6.54,0,10.85-1.34,10.85-3.7,0-7.62-45.92-2.38-45.92-21.58,0-10.69,14.62-16.07,34.48-16.07,22.16,0,32.24,7.12,34.12,15.93Z"/><path class="cls-6" d="M270.71,571V520.75h65v11.74H296.78v7.07h32.91V551.3H296.78v7.83H337.2v11.74Z"/><path class="cls-6" d="M402.77,548.15l-1-11.46V520.75h25.07V571H402.37l-28.5-27.38,1,11.46V571H349.78V520.75h24.53Z"/><path class="cls-6" d="M435.67,571l28.59-50.23H490.9l28.57,50.3h-26l-3.14-6.65H464.26l-3,6.65Zm41.66-35.14-8.09,18h16.5Z"/><polygon class="cls-6" points="525.23 581.94 365.39 581.94 458.43 747.16 478.94 729.29 404.53 605.01 525.96 604.71 525.23 581.94"/><polygon class="cls-6" points="180.08 581.94 339.91 581.94 246.87 747.16 226.36 729.29 300.79 605.01 179.34 604.71 180.08 581.94"/><polygon class="cls-6" points="264.68 760.42 351.91 609.9 441.63 758.95 417.93 769.64 353.9 655.16 285.74 771 264.68 760.42"/></g></g></svg>