<svg id="Capa_1" data-name="Capa 1" xmlns="http://www.w3.org/2000/svg" viewBox="0 0 369 148"><defs><style>.cls-1,.cls-2{fill:#ff6b00;}.cls-2{font-size:17px;font-family:Roboto-Bold, Roboto;font-weight:700;}.cls-3{letter-spacing:-0.09em;}.cls-4{letter-spacing:-0.02em;}.cls-5{letter-spacing:-0.04em;}.cls-6{letter-spacing:-0.01em;}</style></defs><title>img div_partes2</title><path class="cls-1" d="M330.81,3l17.13,14.31L366,32.21V145H0V3H330.81m1.09-3H-3V148H369V30.8L349.85,15l-18-15Z"/><text class="cls-2" transform="translate(91.56 126.24)"><tspan class="cls-3">P</tspan><tspan x="9.49" y="0">A</tspan><tspan class="cls-4" x="20.93" y="0">R</tspan><tspan x="31.36" y="0">TES DEL </tspan></text><text class="cls-2" transform="translate(196.56 126.24)">M<tspan class="cls-5" x="14.89" y="0">O</tspan><tspan class="cls-6" x="25.92" y="0">T</tspan><tspan x="36.21" y="0">OR </tspan></text><path class="cls-1" d="M197.49,22H152.57a8.74,8.74,0,0,0-8.73,8.73V75.55a8.74,8.74,0,0,0,8.73,8.73H166.3v-2.5H152.57a6.23,6.23,0,0,1-6.23-6.23V54.44h8A1.33,1.33,0,0,0,155.58,53a1.43,1.43,0,0,0-.09-.42,5,5,0,1,1,9.13,0,1.3,1.3,0,0,0,.61,1.72,1.26,1.26,0,0,0,.54.13h8v7.48a7.41,7.41,0,0,0-1.24-.1,7.49,7.49,0,0,0-3,14.35l1-2.29a5,5,0,0,1,4-9.15,1.24,1.24,0,0,0,1.64-.64,1.25,1.25,0,0,0,.11-.5V54.44h6.34A7.51,7.51,0,0,0,188.51,63l.49-2.45a5,5,0,0,1-4-4.88,5.09,5.09,0,0,1,.42-2,1.24,1.24,0,0,0-.64-1.64,1.25,1.25,0,0,0-.5-.11h-8V45.6a7.49,7.49,0,1,0,0-14.76V24.5h21.21a6.25,6.25,0,0,1,6.24,6.23V51.94h-8a1.26,1.26,0,0,0-1.24,1.26,1.35,1.35,0,0,0,.11.49,4.92,4.92,0,0,1,.42,2h2.5a7.45,7.45,0,0,0-.11-1.25H205a1.25,1.25,0,0,0,1.25-1.25V30.73A8.75,8.75,0,0,0,197.49,22Zm-20,11.23a5,5,0,1,1,0,10,4.92,4.92,0,0,1-2-.42,1.24,1.24,0,0,0-1.64.64,1.25,1.25,0,0,0-.11.5v7.91h-6.34a7.31,7.31,0,0,0,.1-1.14v-.11a7.49,7.49,0,0,0-15,0v.11a6.27,6.27,0,0,0,.1,1.14h-6.33V30.73a6.23,6.23,0,0,1,6.23-6.23h21.21v8a1.26,1.26,0,0,0,1.75,1.14A4.92,4.92,0,0,1,177.53,33.23Z"/><path class="cls-1" d="M216,75.63,205.54,68.4l-4-10.76a1.25,1.25,0,0,0-1.6-.73h0l-.07,0-8.11,3.58a1.25,1.25,0,0,0-.66,1.59c.13.35.26.61.39.89a7.72,7.72,0,0,1,.41.93,5,5,0,1,1-9.65,1.5A1.25,1.25,0,0,0,181,64.12a1.42,1.42,0,0,0-.5.08l-8.67,3.27a1.25,1.25,0,0,0-.73,1.6l3.12,8.31a7,7,0,0,0-1.21.34,7.5,7.5,0,1,0,5.22,14.06,7.33,7.33,0,0,0,1.17-.55l2.23,6a1.26,1.26,0,0,0,1.61.73h0l12.36-4.66a6.66,6.66,0,0,0,4,3.53l.78-2.37a4.26,4.26,0,0,1-2.39-2L201.75,91A8.73,8.73,0,0,0,210,96.76v-2.5A6.27,6.27,0,0,1,203.73,88a1.22,1.22,0,0,0-.37-.88L199,82.79a1.84,1.84,0,0,1-.17-2.4,1.8,1.8,0,0,1,1.34-.73,1.78,1.78,0,0,1,1.43.53l8.71,8.72,1.76-1.77-2.57-2.58a8.77,8.77,0,0,0-.11-5.83l-2.34-6.24,7.54,5.19a3.73,3.73,0,0,1,1.59,3.06V96.86h2.5V80.74A6.22,6.22,0,0,0,216,75.63Zm-9,4a6.27,6.27,0,0,1,.36,2.88l-4.05-4.06a4.34,4.34,0,1,0-6.21,6.06l.08.07,3.94,4-17.62,6.64-2.38-6.35a1.24,1.24,0,0,0-2-.45,5,5,0,0,1-6.86-7.26,5.24,5.24,0,0,1,1.63-1,5.3,5.3,0,0,1,1.24-.28,4.07,4.07,0,0,1,.78,0,1.25,1.25,0,0,0,1.31-1.18h0a1.27,1.27,0,0,0-.08-.51l-3.26-8.69,5.94-2.24a7.49,7.49,0,1,0,14.69-2.89,7.15,7.15,0,0,0-.33-1.18c-.11-.31-.22-.55-.31-.76l5.74-2.54Z"/></svg>