<?xml version="1.0" encoding="utf-8"?>
<!-- Generator: Adobe Illustrator 24.0.1, SVG Export Plug-In . SVG Version: 6.00 Build 0)  -->
<svg version="1.1" id="Capa_1" xmlns="http://www.w3.org/2000/svg" xmlns:xlink="http://www.w3.org/1999/xlink" x="0px" y="0px"
	 viewBox="0 0 369 148" style="enable-background:new 0 0 369 148;" xml:space="preserve">
<style type="text/css">
	.st0{fill:#FF6B00;}
	.st1{font-family:'Arial-BoldMT';}
	.st2{font-size:17px;}
	.st3{letter-spacing:-1;}
</style>
<title>img div</title>
<path class="st0" d="M330.8,3l17.1,14.3L366,32.2V145H0V3H330.8 M331.9,0H-3v148h372V30.8L349.9,15L331.9,0L331.9,0z"/>
<text transform="matrix(1 0 0 1 97.5598 127.68)" class="st0 st1 st2 st3">PARTES  DEL  MOTOR</text>
<path class="st0" d="M197.5,22h-44.9c-4.8,0-8.7,3.9-8.7,8.7v44.8c0,4.8,3.9,8.7,8.7,8.7h13.7v-2.5h-13.7c-3.4,0-6.2-2.8-6.2-6.2
	V54.4h8c0.7,0,1.3-0.7,1.2-1.4c0,0,0,0,0,0c0-0.1,0-0.3-0.1-0.4c-1.1-2.5,0-5.5,2.5-6.6c2.5-1.1,5.5,0,6.6,2.5
	c0.6,1.3,0.6,2.8,0,4.1c-0.3,0.6,0,1.4,0.6,1.7c0.2,0.1,0.4,0.1,0.5,0.1h8v7.5c-0.4-0.1-0.8-0.1-1.2-0.1c-4.1,0-7.5,3.4-7.5,7.5
	c0,3,1.8,5.7,4.5,6.9l1-2.3c-2.5-1.2-3.5-4.2-2.2-6.7c1.1-2.3,3.8-3.3,6.2-2.4c0.6,0.3,1.4,0,1.6-0.6c0,0,0,0,0,0
	c0.1-0.2,0.1-0.3,0.1-0.5v-9.1h6.3c-0.6,4,2,7.7,5.9,8.6l0.5-2.5c-2.3-0.5-4-2.5-4-4.9c0-0.7,0.1-1.4,0.4-2c0.3-0.6,0-1.4-0.6-1.6
	c0,0,0,0,0,0c-0.2-0.1-0.3-0.1-0.5-0.1h-8v-6.3c4.1,0.7,8-2,8.7-6.1c0.7-4.1-2-8-6.1-8.7c-0.8-0.1-1.7-0.1-2.6,0v-6.3h21.2
	c3.4,0,6.2,2.8,6.2,6.2v21.2h-8c-0.7,0-1.2,0.6-1.2,1.3c0,0.2,0,0.3,0.1,0.5c0.3,0.6,0.4,1.3,0.4,2h2.5c0-0.4,0-0.8-0.1-1.3h7.6
	c0.7,0,1.3-0.6,1.3-1.3V30.7C206.2,25.9,202.3,22,197.5,22z M177.5,33.2c2.8,0,5,2.2,5,5s-2.2,5-5,5c-0.7,0-1.4-0.1-2-0.4
	c-0.6-0.3-1.4,0-1.6,0.6c0,0,0,0,0,0c-0.1,0.2-0.1,0.3-0.1,0.5v7.9h-6.3c0.1-0.4,0.1-0.8,0.1-1.1v-0.1c0-4.1-3.4-7.5-7.5-7.5
	s-7.5,3.4-7.5,7.5v0.1c0,0.4,0,0.8,0.1,1.1h-6.3V30.7c0-3.4,2.8-6.2,6.2-6.2h21.2v8c0,0.7,0.6,1.3,1.3,1.2c0.2,0,0.3,0,0.5-0.1
	C176.1,33.4,176.8,33.2,177.5,33.2L177.5,33.2z"/>
<path class="st0" d="M216,75.6l-10.5-7.2l-4-10.8c-0.2-0.6-1-1-1.6-0.7l0,0h-0.1l-8.1,3.6c-0.6,0.3-0.9,1-0.7,1.6
	c0.1,0.3,0.3,0.6,0.4,0.9c0.2,0.3,0.3,0.6,0.4,0.9c1,2.6-0.3,5.5-2.8,6.5s-5.5-0.3-6.5-2.8c-0.3-0.7-0.4-1.4-0.3-2.1
	c0-0.7-0.5-1.3-1.2-1.3c0,0,0,0,0,0c-0.2,0-0.3,0-0.5,0.1l-8.7,3.3c-0.6,0.2-1,1-0.7,1.6l3.1,8.3c-0.4,0.1-0.8,0.2-1.2,0.3
	c-3.9,1.4-6,5.7-4.6,9.6c1.4,3.9,5.7,6,9.6,4.6c0.1,0,0.2-0.1,0.2-0.1c0.4-0.1,0.8-0.3,1.2-0.6l2.2,6c0.2,0.6,1,1,1.6,0.7l0,0
	l12.4-4.7c0.8,1.7,2.2,3,4,3.5l0.8-2.4c-1-0.3-1.9-1.1-2.4-2l3.8-1.5c1.3,3.5,4.6,5.8,8.3,5.8v-2.5c-3.5,0-6.3-2.8-6.3-6.3
	c0-0.3-0.1-0.6-0.4-0.9l-4.4-4.3c-0.6-0.6-0.7-1.7-0.2-2.4c0.3-0.4,0.8-0.7,1.3-0.7c0.5,0,1.1,0.1,1.4,0.5l8.7,8.7l1.8-1.8l-2.6-2.6
	c0.6-1.9,0.6-4-0.1-5.8l-2.3-6.2l7.5,5.2c1,0.7,1.6,1.8,1.6,3.1v16.1h2.5V80.7C218.7,78.7,217.7,76.8,216,75.6z M207,79.6
	c0.3,0.9,0.5,1.9,0.4,2.9l-4.1-4.1c-1.6-1.8-4.4-1.9-6.1-0.2c-1.8,1.6-1.9,4.4-0.2,6.1c0.1,0.1,0.1,0.1,0.2,0.2l0.1,0.1l3.9,4
	l-17.6,6.6l-2.4-6.3c-0.3-0.6-1-0.9-1.6-0.7c-0.1,0.1-0.3,0.1-0.4,0.2c-2.1,1.8-5.3,1.6-7.1-0.5c-1.7-2-1.6-4.9,0.2-6.7
	c0.5-0.4,1-0.8,1.6-1c0.4-0.1,0.8-0.2,1.2-0.3c0.3,0,0.5,0,0.8,0c0.7,0,1.3-0.5,1.3-1.2l0,0c0-0.2,0-0.3-0.1-0.5l-3.3-8.7l5.9-2.2
	c0.7,4.1,4.5,6.9,8.6,6.2s6.9-4.5,6.2-8.6c0-0.2-0.1-0.3-0.1-0.5c-0.1-0.4-0.2-0.8-0.3-1.2c-0.1-0.3-0.2-0.5-0.3-0.8l5.7-2.5
	L207,79.6z"/>
</svg>
