<svg id="Capa_1" data-name="Capa 1" xmlns="http://www.w3.org/2000/svg" viewBox="0 0 369 148"><defs><style>.cls-1,.cls-2{fill:#ff6b00;}.cls-2{font-size:17px;font-family:Roboto-Bold, Roboto;font-weight:700;}</style></defs><title>img div</title><path class="cls-1" d="M330.81,3l17.13,14.31L366,32.21V145H0V3H330.81m1.09-3H-3V148H369V30.8L349.85,15l-18-15Z"/><text class="cls-2" transform="translate(109.56 126.24)">FUNCIONALIDAD</text><path class="cls-1" d="M184.46,63.24H183a1.36,1.36,0,0,1-1.27-.89c-.17-.44-.34-.87-.54-1.29a1.36,1.36,0,0,1,.27-1.53l1.08-1.08a4.12,4.12,0,0,0,0-5.81l-3.88-3.88a4.12,4.12,0,0,0-5.81,0l-1.08,1.08a1.36,1.36,0,0,1-1.53.27c-.42-.19-.85-.37-1.29-.55a1.35,1.35,0,0,1-.9-1.27V46.78a4.11,4.11,0,0,0-4.11-4.11H158.4a4.11,4.11,0,0,0-4.11,4.11v1.51a1.35,1.35,0,0,1-.89,1.27c-.44.17-.86.34-1.29.54a1.36,1.36,0,0,1-1.53-.27l-1.08-1.08a4.12,4.12,0,0,0-5.81,0l-3.87,3.89a4.12,4.12,0,0,0,0,5.81l1.07,1.08a1.34,1.34,0,0,1,.27,1.53c-.19.42-.37.86-.54,1.29a1.35,1.35,0,0,1-1.28.89h-1.51a4.11,4.11,0,0,0-4.11,4.11v5.49A4.11,4.11,0,0,0,137.83,77h1.51a1.34,1.34,0,0,1,1.27.89c.17.44.35.86.54,1.29a1.36,1.36,0,0,1-.27,1.53l-1.08,1.08a4.13,4.13,0,0,0,0,5.81l3.88,3.87a4.12,4.12,0,0,0,5.81,0l1.08-1.07a1.36,1.36,0,0,1,1.53-.27c.42.19.86.37,1.29.55a1.35,1.35,0,0,1,.9,1.27v1.51a4.11,4.11,0,0,0,4.11,4.11h5.49A4.11,4.11,0,0,0,168,93.41V91.9a1.35,1.35,0,0,1,.89-1.27q.66-.25,1.29-.54a1.36,1.36,0,0,1,1.53.27l1.08,1.08a4.13,4.13,0,0,0,5.81,0l3.88-3.88a4.12,4.12,0,0,0,0-5.81l-1.08-1.08a1.36,1.36,0,0,1-.27-1.53c.19-.42.37-.86.55-1.29A1.35,1.35,0,0,1,183,77h1.51a4.11,4.11,0,0,0,4.11-4.11V67.35A4.11,4.11,0,0,0,184.46,63.24Zm1.37,9.6a1.37,1.37,0,0,1-1.37,1.37H183a4.13,4.13,0,0,0-3.84,2.65c-.14.38-.3.76-.47,1.13a4.13,4.13,0,0,0,.82,4.61l1.07,1.07a1.36,1.36,0,0,1,0,1.94h0l-3.87,3.87a1.37,1.37,0,0,1-1.94,0h0l-1.08-1.07a4.11,4.11,0,0,0-4.6-.82c-.37.17-.75.32-1.13.47a4.13,4.13,0,0,0-2.65,3.84v1.51a1.37,1.37,0,0,1-1.37,1.37H158.4A1.38,1.38,0,0,1,157,93.41V91.9a4.12,4.12,0,0,0-2.65-3.84c-.38-.15-.76-.3-1.13-.47a4.13,4.13,0,0,0-4.61.82l-1.07,1.07a1.36,1.36,0,0,1-1.94,0h0l-3.88-3.87a1.38,1.38,0,0,1,0-1.94l1.08-1.07a4.13,4.13,0,0,0,.82-4.61c-.17-.37-.33-.75-.47-1.13a4.12,4.12,0,0,0-3.84-2.65h-1.51a1.38,1.38,0,0,1-1.37-1.37V67.35A1.37,1.37,0,0,1,137.83,66h1.51a4.13,4.13,0,0,0,3.84-2.65c.15-.39.3-.77.47-1.14a4.12,4.12,0,0,0-.82-4.6l-1.08-1.07a1.38,1.38,0,0,1,0-1.94h0l3.88-3.88a1.38,1.38,0,0,1,1.94,0l1.07,1.08a4.12,4.12,0,0,0,4.6.82c.38-.17.76-.33,1.14-.47A4.12,4.12,0,0,0,157,48.29V46.78a1.37,1.37,0,0,1,1.37-1.37h5.49a1.37,1.37,0,0,1,1.37,1.37v1.51a4.14,4.14,0,0,0,2.65,3.84c.39.14.77.3,1.14.47a4.12,4.12,0,0,0,4.6-.82l1.07-1.07a1.36,1.36,0,0,1,1.94,0h0l3.88,3.87a1.37,1.37,0,0,1,0,1.94h0l-1.08,1.08a4.13,4.13,0,0,0-.82,4.6c.17.37.33.75.47,1.13A4.14,4.14,0,0,0,183,66h1.51a1.37,1.37,0,0,1,1.37,1.37Z"/><path class="cls-1" d="M173.46,69.54c0-.32,0-.65-.08-1a9.78,9.78,0,0,0-.17-1c-.05-.22-.11-.44-.17-.67s-.16-.56-.26-.83-.13-.38-.21-.57a11.49,11.49,0,0,0-.6-1.28s0-.07-.05-.1a12.18,12.18,0,0,0-1.23-1.8l-.13-.14a7.35,7.35,0,0,0-.59-.65c-.1-.11-.22-.21-.33-.32l-.41-.37q-.25-.23-.51-.42l-.23-.18a12.3,12.3,0,0,0-7.34-2.44c-.14,0-.28,0-.41,0a8.85,8.85,0,0,0-.89,0l-.46.06a12,12,0,0,0-1.33.25,12.34,12.34,0,0,0,0,23.91h.07a13.89,13.89,0,0,0,1.43.28c.33,0,.64,0,1,.06s.42,0,.64,0c.39,0,.8,0,1.21-.06l.14,0c.33,0,.67-.09,1-.16.14,0,.27-.06.4-.09a7.16,7.16,0,0,0,.73-.19,5.27,5.27,0,0,0,.56-.19c.19-.06.39-.13.58-.21s.36-.16.54-.24.45-.21.68-.33h0a16.59,16.59,0,0,0,3.52-2.54,4.23,4.23,0,0,0,.73-.9,14.6,14.6,0,0,0,2.06-5.64c0-.26.07-.53.09-.79s0-.5,0-.75c0-.08,0-.15,0-.23A3.49,3.49,0,0,0,173.46,69.54Zm-2.73.9c0,.11,0,.22,0,.34,0,.33-.07.66-.12,1a9.59,9.59,0,0,1-4.82,6.71l-.5.25-.11.06a10,10,0,0,1-2.5.75l-.19,0a4.43,4.43,0,0,1-.51.06l-.67,0H161c-.32,0-.65,0-1-.06l-.17,0a10.52,10.52,0,0,1-1.12-.21,9.6,9.6,0,0,1,0-18.6h0a9.84,9.84,0,0,1,2.42-.3,11.5,11.5,0,0,1,1.17.08l.31,0,.88.17.28.08a9.36,9.36,0,0,1,2.09.88l.31.19a6.51,6.51,0,0,1,.64.43l.33.24a10.21,10.21,0,0,1,.77.69c.1.1.19.21.28.31s.31.34.46.53l.29.39c.14.2.28.41.4.62l.21.34a9.11,9.11,0,0,1,.47,1c.06.14.1.28.15.41s.17.52.24.77.07.26.1.39a10.61,10.61,0,0,1,.17,1.13c0,.1,0,.2,0,.3C170.73,69.8,170.74,70.12,170.73,70.44Z"/><path class="cls-1" d="M211.89,44h-4.32a1.36,1.36,0,0,1-1.28-.9,27.48,27.48,0,0,0-1.54-3.72,1.34,1.34,0,0,1,.27-1.54l3-3.06a4.11,4.11,0,0,0,0-5.82l-5.82-5.83a4.13,4.13,0,0,0-5.82,0l-3.06,3.06a1.32,1.32,0,0,1-1.54.26A28.83,28.83,0,0,0,188.11,25a1.35,1.35,0,0,1-.91-1.28V19.35a4.11,4.11,0,0,0-4.11-4.11h-8.23a4.11,4.11,0,0,0-4.11,4.11v4.32a1.36,1.36,0,0,1-.9,1.28,27.48,27.48,0,0,0-3.72,1.54,1.34,1.34,0,0,1-1.54-.27l-3.07-3a4.13,4.13,0,0,0-5.82,0L149.88,29a4.12,4.12,0,0,0,0,5.81l4.5,4.51a1.37,1.37,0,0,0,1.94-1.94l-4.5-4.51a1.38,1.38,0,0,1,0-1.94l5.83-5.82a1.38,1.38,0,0,1,1.94,0l3.06,3.06a4.08,4.08,0,0,0,4.71.78,25.27,25.27,0,0,1,3.36-1.39,4.09,4.09,0,0,0,2.77-3.89V19.35A1.37,1.37,0,0,1,174.86,18h8.23a1.37,1.37,0,0,1,1.37,1.37v4.32a4.09,4.09,0,0,0,2.77,3.88,26.74,26.74,0,0,1,3.36,1.4,4.09,4.09,0,0,0,4.71-.77l3.07-3.07a1.38,1.38,0,0,1,1.94,0l5.82,5.83a1.38,1.38,0,0,1,0,1.94l-3.06,3.06a4.06,4.06,0,0,0-.77,4.71A25.4,25.4,0,0,1,203.69,44a4.08,4.08,0,0,0,3.88,2.76h4.32a1.37,1.37,0,0,1,1.37,1.37v8.23a1.37,1.37,0,0,1-1.37,1.37h-4.32a4.09,4.09,0,0,0-3.88,2.77,24.73,24.73,0,0,1-1.39,3.36,4.07,4.07,0,0,0,.77,4.72l3.06,3.06a1.38,1.38,0,0,1,0,1.94l-5.83,5.82a1.38,1.38,0,0,1-1.94,0l-4.5-4.5a1.38,1.38,0,0,0-1.94-.07,1.37,1.37,0,0,0-.07,1.94l0,0,0,0,4.5,4.5a4.11,4.11,0,0,0,5.82,0l5.82-5.83a4.1,4.1,0,0,0,0-5.81L205,66.66a1.34,1.34,0,0,1-.26-1.54,28.83,28.83,0,0,0,1.54-3.72,1.34,1.34,0,0,1,1.28-.9h4.32A4.11,4.11,0,0,0,216,56.38h0V48.15A4.11,4.11,0,0,0,211.89,44Z"/><path class="cls-1" d="M191.58,39.66a17.85,17.85,0,0,0-25.21,0,1.37,1.37,0,0,0,1.94,1.94,15.08,15.08,0,0,1,21.62,21l-.15.15-.14.14a1.37,1.37,0,0,0,1.91,2l0,0A17.85,17.85,0,0,0,191.58,39.66Z"/></svg>