<svg id="Capa_1" data-name="Capa 1" xmlns="http://www.w3.org/2000/svg" viewBox="0 0 369 148"><defs><style>.cls-1,.cls-2{fill:#ff6b00;}.cls-2{font-size:17px;font-family:Roboto-Bold, Roboto;font-weight:700;}</style></defs><title>img div</title><path class="cls-1" d="M330.81,3l17.13,14.31L366,32.21V145H0V3H330.81m1.09-3H-3V148H369V30.8L349.85,15l-18-15Z"/><path class="cls-1" d="M176.59,32a22.66,22.66,0,0,0-15,39.64c3.58,3.58,3.25,11.24,3.17,11.32A1.34,1.34,0,0,0,165.2,84a1.46,1.46,0,0,0,1,.4h20.76a1.34,1.34,0,0,0,1-.4,1.55,1.55,0,0,0,.41-1.06c0-.08-.41-7.74,3.17-11.32l.25-.24A22.6,22.6,0,0,0,176.59,32Zm13,37.53c-.08.08-.24.24-.24.32-3.18,3.42-3.75,9-3.83,11.72h-18c-.08-2.68-.65-8.54-4.07-12a19.82,19.82,0,1,1,28-1.85A20.08,20.08,0,0,1,189.62,69.5Z"/><path class="cls-1" d="M176.51,37.75a1.38,1.38,0,0,0-1.38,1.38,1.4,1.4,0,0,0,1.38,1.39h0a14.81,14.81,0,0,1,14.82,14.81,1.39,1.39,0,1,0,2.77,0A17.51,17.51,0,0,0,176.51,37.75Z"/><path class="cls-1" d="M185.55,85.94H167.48a3.42,3.42,0,1,0,0,6.84h18a3.51,3.51,0,0,0,3.5-3.42A3.44,3.44,0,0,0,185.55,85.94Zm0,4H167.48a.64.64,0,0,1-.65-.63v0a.6.6,0,0,1,.54-.65h18.1a.64.64,0,0,1,.65.63v0A.58.58,0,0,1,185.55,89.93Z"/><path class="cls-1" d="M182.86,94.16h-12.7a3.42,3.42,0,1,0,0,6.84h12.7a3.44,3.44,0,0,0,3.42-3.42,3.39,3.39,0,0,0-3.36-3.42Zm0,4h-12.7a.64.64,0,0,1-.65-.63v0a.6.6,0,0,1,.54-.65h12.81a.65.65,0,1,1,0,1.3Z"/><path class="cls-1" d="M176.51,25.21a1.37,1.37,0,0,0,1.39-1.36V14.38a1.39,1.39,0,0,0-2.77,0v9.45A1.42,1.42,0,0,0,176.51,25.21Z"/><path class="cls-1" d="M199.55,20a1.31,1.31,0,0,0-1.83.27.21.21,0,0,0,0,.06l-5.21,7.81A1.33,1.33,0,0,0,192.7,30l.09.08a1.39,1.39,0,0,0,.74.24,1.31,1.31,0,0,0,1.14-.65l5.21-7.82a1.26,1.26,0,0,0-.19-1.77A.71.71,0,0,0,199.55,20Z"/><path class="cls-1" d="M160,30a1.27,1.27,0,0,0,.73-.24,1.42,1.42,0,0,0,.41-1.95l-5-7.9a1.41,1.41,0,1,0-2.36,1.55l5.05,7.89A1.31,1.31,0,0,0,160,30Z"/><path class="cls-1" d="M150.14,38.64l-8.22-4.47a1.43,1.43,0,0,0-1.88.57,1.3,1.3,0,0,0,.42,1.79l.15.08,8.23,4.48a2,2,0,0,0,.65.16,1.36,1.36,0,0,0,1.22-.73A1.45,1.45,0,0,0,150.14,38.64Z"/><path class="cls-1" d="M213.06,34.74a1.42,1.42,0,0,0-1.87-.57l-8.3,4.47a1.44,1.44,0,0,0-.57,1.88,1.35,1.35,0,0,0,1.22.73,1.6,1.6,0,0,0,.65-.16l8.31-4.48A1.43,1.43,0,0,0,213.06,34.74Z"/><text class="cls-2" transform="translate(114.56 126.24)">INTRODUCCIÓN</text></svg>