<svg id="Capa_1" data-name="Capa 1" xmlns="http://www.w3.org/2000/svg" viewBox="0 0 369 148"><defs><style>.cls-1,.cls-2{fill:#ff6b00;}.cls-2{font-size:17px;font-family:Roboto-Bold, Roboto;font-weight:700;}</style></defs><title>img div</title><path class="cls-1" d="M330.81,3l17.13,14.31L366,32.21V145H0V3H330.81m1.09-3H-3V148H369V30.8L349.85,15l-18-15Z"/><text class="cls-2" transform="translate(142.56 126.24)">QUÉ ES ?</text><path class="cls-1" d="M175.21,90.24a34.62,34.62,0,1,1,34.64-34A34.67,34.67,0,0,1,175.21,90.24Zm-31.5-34.95a31.52,31.52,0,1,0,32.06-31.18A31.5,31.5,0,0,0,143.71,55.29Z"/><path class="cls-1" d="M172.65,67.93a1.33,1.33,0,0,1-1.33-1.33v0a16.1,16.1,0,0,1,.74-5q.74-1.8,4-4.76l0,0a49.25,49.25,0,0,0,5.5-6.55,12,12,0,0,0,1.73-6.7q0-4.47-2.38-6.92c-1.58-1.64-3.85-2.45-6.79-2.45a9.29,9.29,0,0,0-6.65,2.39,8.63,8.63,0,0,0-2.55,6.25.25.25,0,0,1-.25.24h-3.48a.25.25,0,0,1-.24-.17h0a.19.19,0,0,1,0-.08,11.24,11.24,0,0,1,3.63-9.05,13.9,13.9,0,0,1,9.55-3.33q6.27,0,9.81,3.53t3.56,9.56a15.28,15.28,0,0,1-2.32,8.38,40.69,40.69,0,0,1-6.6,7.64A8,8,0,0,0,175.93,63a15.72,15.72,0,0,0-.45,3.69,1.33,1.33,0,0,1-1.33,1.28Zm3.11,14.13H171.4a.25.25,0,0,1-.25-.25V76.93a.25.25,0,0,1,.25-.25h4.36a.25.25,0,0,1,.25.25h0v4.89A.25.25,0,0,1,175.76,82.06Z"/></svg>