<svg id="Capa_1" data-name="Capa 1" xmlns="http://www.w3.org/2000/svg" xmlns:xlink="http://www.w3.org/1999/xlink" viewBox="0 0 574.56 527.44"><defs><style>.cls-1{fill:none;}.cls-2{font-size:27px;}.cls-2,.cls-3{fill:#191919;font-family:TypoRoundBoldDemo, Typo Round Bold Demo;}.cls-3{font-size:79.14px;}.cls-4{fill:#f46300;}.cls-5{fill:#169fbf;}.cls-6{clip-path:url(#clip-path);}</style><clipPath id="clip-path"><path class="cls-1" d="M306.5,145c2.34,0,8.1-5.76,10.44,2.7s-1.08,11.67,4.86,13.58,9.94-5.53,13.5,4.06,1.44,11.7,6.3,12.24-12.14,8.1-12.14,8.1-17.74-6.84-18.28-7.38-7.92-22-7.92-22Z"/></clipPath></defs><title>Logo multide</title><text class="cls-2" transform="translate(74.91 366.93)">Creatividad al alcance de un click</text><text class="cls-3" transform="translate(143.53 337.46)">MultiDe</text><path class="cls-4" d="M298.74,253.53a32.28,32.28,0,0,1,4-5.4l1.26-1.57V178.5a36.62,36.62,0,0,0-36.59-36.59q-18.11,0-27.24,12-9.19-12-27.31-12a36.63,36.63,0,0,0-36.59,36.59v73A8.5,8.5,0,0,0,179,258a8.81,8.81,0,0,0,6.46,2.74h.23a8.83,8.83,0,0,0,6.47-2.74,8.54,8.54,0,0,0,2.74-6.46v-73a18,18,0,1,1,35.91,0v73a8.5,8.5,0,0,0,2.74,6.46,8.89,8.89,0,0,0,6.54,2.74h.15a9.34,9.34,0,0,0,9.2-9.2v-73a18,18,0,1,1,36,0v73a8.5,8.5,0,0,0,2.74,6.46,8.22,8.22,0,0,0,2.07,1.6,42.68,42.68,0,0,1,7.63-4.69C298.15,254.45,298.43,254,298.74,253.53Z"/><path class="cls-4" d="M325,203.46a83.29,83.29,0,0,0,4.49-14.55,19.47,19.47,0,0,1-6.75-.16,24.66,24.66,0,0,1-4.33-1.24,19.69,19.69,0,0,1-7.82-5.45,85.14,85.14,0,0,0-6.32,13.27c-9.34,23.79-19.27,62.79-13.55,65S315.64,227.26,325,203.46Z"/><path class="cls-5" d="M331.3,179.9c18-6.74,5.53-22.11,19-31.67-6.9-9.75-20.82-7.72-29.41-1.64-8,5.64-15.09,14.43-10.4,24.55C314.49,179.72,322.49,183.19,331.3,179.9Z"/><path class="cls-4" d="M304.4,245.18s-6.95,15.2-13.71,15.18-5.25-16.82-5.25-16.82"/><path class="cls-5" d="M391.92,158a61.48,61.48,0,0,0-19.34-13.09,66.47,66.47,0,0,0-10.33-3.25l-1-.2-14.54,17.7h1.73a41.05,41.05,0,0,1,29.92,12.18,41.37,41.37,0,0,1,0,59,41.18,41.18,0,0,1-29.92,12.1H330.1v18.82a25.27,25.27,0,0,0,2.92.19h15.44a59.66,59.66,0,0,0,43.46-17.77q18-17.76,18-42.82T391.92,158Z"/><ellipse class="cls-5" cx="330.29" cy="251.8" rx="9.69" ry="9.43"/><g class="cls-6"><path class="cls-4" d="M331.28,179.9c18-6.74,5.53-22.11,19-31.67-6.9-9.75-20.83-7.72-29.41-1.64-8,5.64-15.09,14.43-10.41,24.55C314.47,179.72,322.47,183.19,331.28,179.9Z"/></g><path class="cls-5" d="M361.27,141.47s-16.27-1.7-20.45-.95a16.32,16.32,0,0,1,6.44,1.95c4,2,6,5.19,5.62,6.63,0,0-.61.49-.83.72s-6,4.51-5.32,9.35"/></svg>