<svg id="Capa_1" data-name="Capa 1" xmlns="http://www.w3.org/2000/svg" viewBox="0 0 792 612"><defs><style>.cls-1{fill:#fff;}</style></defs><title>11</title><path class="cls-1" d="M378-6h38c1.28.3,2.54.7,3.83.9,15.79,2.41,31.77,3.91,47.33,7.33,52,11.4,97.71,35.5,137.52,70.64A312.56,312.56,0,0,1,707,265.31q1.49,11.35,3,22.69v38c-1,7.57-2,15.13-3,22.7a299.84,299.84,0,0,1-31,100.16A310.13,310.13,0,0,1,578.88,561.6,305.9,305.9,0,0,1,438.72,617L416,620H378c-7.74-1-15.47-2-23.21-3a298.12,298.12,0,0,1-100.1-31.18c-51.07-26.4-92.17-63.85-122.81-112.67A305.92,305.92,0,0,1,87,348.71Q85.51,337.36,84,326V288c.32-1.45.72-2.88,1-4.35,2.43-15.78,4.08-31.72,7.39-47.31,7.59-35.71,22-68.74,41.88-99.3A311.21,311.21,0,0,1,230.9,41.86,306.52,306.52,0,0,1,355.32-3Zm19.09,575.07c144,0,261.65-117.42,262-261.54C659.44,163.13,541.69,45,397.21,44.87c-144.33-.15-262.37,117.9-262.28,262.3C135,451.36,252.8,569,397.09,569.07Z"/><path class="cls-1" d="M430.24,374.31h-65.8c-4.25-87-8.49-173.74-12.75-260.94H443Q436.59,243.81,430.24,374.31Z"/><path class="cls-1" d="M396.9,403.84c29.72-.63,51.11,20.9,51.67,52,.56,30.71-21.05,53.16-51.9,52.9-29.74-.25-50.58-20.46-51.18-52.13C344.91,425.89,365.83,404.49,396.9,403.84Z"/></svg>