<svg xmlns="http://www.w3.org/2000/svg" viewBox="0 0 163.2 470.88"><defs><style>.cls-1{fill:#083b51;}.cls-15,.cls-2,.cls-3,.cls-6{fill:none;}.cls-2{stroke:#4b869b;}.cls-2,.cls-3,.cls-6{stroke-miterlimit:10;}.cls-3{stroke:#195468;}.cls-4{fill:#232426;}.cls-5{fill:#474849;}.cls-6{stroke:#515254;}.cls-7{fill:#fcac81;}.cls-8{fill:#fc7f63;}.cls-9{fill:#f96c41;}.cls-10{fill:#090000;}.cls-11{fill:#66482a;}.cls-12{fill:#920e08;}.cls-13{fill:#f85c66;}.cls-14{fill:#efe8e9;}.cls-16{fill:#ffaf82;}.cls-17{fill:#868fb5;}.cls-18{fill:#6176aa;}.cls-19{fill:#6377a8;}.cls-20{fill:#939bb5;}.cls-21{fill:#95a3bf;}.cls-22{fill:#061b23;}.cls-23{fill:#000202;}.cls-24{opacity:0.79;}.cls-25{fill:#ccc;}.cls-26{fill:#8c8c8c;}.cls-27{fill:#b2afad;}.cls-27,.cls-28{opacity:0.42;}.cls-28{fill:#636363;}.cls-29{fill:#1d2360;}.cls-30{fill:#0c123a;}</style></defs><title>personaje</title><g id="personaje"><path class="cls-1" d="M113.71,208.06S76.33,195,47.33,210c0,0-11.11,48.75-8.18,103.46.32,6.08.18,12,.53,17.63,0,0-2,9-1,16l-3,82-1,9h15l6-47s7-25,4-48c0,0,0-2,2-7,0,0,18.1-45.47,18.1-85.47a2.38,2.38,0,0,0,1.89-.14s7.51,59.11,18.51,86.11a19.22,19.22,0,0,0,.39,4.63c.49,1.89-2.91,20,5.49,53.85,0,0,4.14,27.24,4.14,39.75l15.21.09S123.7,368.53,122,348.1c0,0,1.35-55.8.63-68.76C122.62,279.34,118,223.52,113.71,208.06Z"/><path class="cls-2" d="M44.59,233.48s11.82-1,15-8.88"/><path class="cls-2" d="M115.51,234.26s-11.82-1-15-8.88"/><path class="cls-3" d="M82.61,222.56s2.45,25.64-3.09,23.24"/><path class="cls-4" d="M53.26,422.5s-.71-1.5-3.09-.29c0,0-7,1.75-12.11-.09,0,0-1.91-1.35-3.38-.09a46.91,46.91,0,0,1-8.54,25.07s-4.32,7.92-1.44,15a57.39,57.39,0,0,0,32,.27s1.62-9.39-1.44-16.83C55.3,445.57,52.3,438.64,53.26,422.5Z"/><path class="cls-5" d="M25.91,450.11s9.35,4.73,29.57,1a12,12,0,0,1,.3,7.8s-21.48,6.3-30.72-1.26A28,28,0,0,1,25.91,450.11Z"/><line class="cls-6" x1="32.44" y1="447.34" x2="49.9" y2="447.22"/><line class="cls-6" x1="33.64" y1="442.38" x2="49.6" y2="442.27"/><line class="cls-6" x1="34.68" y1="437.8" x2="49.43" y2="437.69"/><line class="cls-6" x1="35.19" y1="434.39" x2="49.95" y2="434.29"/><line class="cls-6" x1="36.25" y1="430.67" x2="49.66" y2="430.58"/><path class="cls-4" d="M107.65,423.68s.7-1.5,3.09-.28c0,0,7,1.74,12.1-.1,0,0,1.91-1.34,3.39-.08a46.89,46.89,0,0,0,8.54,25.06s4.32,7.92,1.44,15a57.39,57.39,0,0,1-32,.27s-1.62-9.39,1.44-16.83C105.61,446.75,108.61,439.82,107.65,423.68Z"/><path class="cls-5" d="M135,451.3s-9.34,4.72-29.56,1a11.92,11.92,0,0,0-.3,7.8s21.48,6.3,30.72-1.26A28.27,28.27,0,0,0,135,451.3Z"/><line class="cls-6" x1="128.47" y1="448.52" x2="111.01" y2="448.4"/><line class="cls-6" x1="127.27" y1="443.57" x2="111.31" y2="443.46"/><line class="cls-6" x1="126.23" y1="438.98" x2="111.47" y2="438.88"/><line class="cls-6" x1="125.71" y1="435.58" x2="110.95" y2="435.48"/><line class="cls-6" x1="124.66" y1="431.86" x2="111.25" y2="431.77"/><polygon class="cls-7" points="71.92 92.31 71.92 83.31 71.92 79.72 88.96 79.72 88.96 93.16 80.74 95.56 75.97 95.56 71.92 92.31"/><path class="cls-8" d="M89,82.18S80,91.24,72,81.85l-.14-1.14Z"/><path class="cls-7" d="M101.17,62.53s-4.56,18-14.7,20.94c0,0-6.85,1.44-10.7,0,0,0-13-2.76-17-21.34,0,0-6.77,3-7.79-6.52,0,0-.48-6.84,2.16-8a3,3,0,0,1,4.19,1.58S55.63,26,63.85,24.73c0,0,33.12-5.76,36.78,4.86,0,0,2.94,10.92,1.8,18.6,0,0,3.19-2.91,5.49,1.24a10.29,10.29,0,0,1,.36,6.5S107.71,62.74,101.17,62.53Z"/><path class="cls-9" d="M80.39,50.54s1.72,9,1.45,10.71c0,0-1,.63-3.36,0,0,0-.27.06-.19.28a5.89,5.89,0,0,0,3.84.39.7.7,0,0,0,.46-.71A64.34,64.34,0,0,0,80.39,50.54Z"/><path class="cls-10" d="M75.2,41.69s-1-1.09-6.87-.47a10,10,0,0,0-2.74.67,20,20,0,0,0-5.15,2.86s6.7-1.84,9.76-1.71C70.2,43,75.87,43.18,75.2,41.69Z"/><path class="cls-9" d="M56.15,52.31s-3.82-2.07-3.37,2.57S56,58.16,56,58.16s.17-.33-.06-.4c0,0-2.32,1-2.77-2.87,0,0-.74-4,2.89-2.37C56,52.52,56.23,52.52,56.15,52.31Z"/><path class="cls-9" d="M102.21,52.31s3.83-2.07,3.38,2.57-3.2,3.28-3.2,3.28-.16-.33.06-.4c0,0,2.33,1,2.78-2.87,0,0,.73-4-2.9-2.37C102.33,52.52,102.14,52.52,102.21,52.31Z"/><path class="cls-10" d="M58.63,55.74l-1.26-6.59L56.44,38.2l-.27-3.92.69-5.5L57.4,26s0-4,1.77-6.61a3.65,3.65,0,0,1,4.23-1.73,1.84,1.84,0,0,1,2.34-.15s27.55-14.7,36.45,7.88c0,0,3.33,9.46-.32,26.24l0-6.71-.18-5.29s.18-7.22-2.79-12.31c0,0-3.54-2.36-6.3-2.69,0,0,2.88,1.55,3.42,2.64,0,0-13.56-6.49-22.14-3.1,0,0-5.31.88-6.44.47,0,0-3.4-.88-4.66,2.31C62.74,27,57.64,30.81,58.63,55.74Z"/><path class="cls-10" d="M84.91,41.69s1-1.09,6.87-.47a9.84,9.84,0,0,1,2.73.67,19.9,19.9,0,0,1,5.16,2.86S93,42.91,89.91,43C89.91,43,84.24,43.18,84.91,41.69Z"/><ellipse class="cls-11" cx="90.48" cy="49.43" rx="2.5" ry="2.16"/><ellipse class="cls-11" cx="69.9" cy="49.79" rx="2.5" ry="2.16"/><path class="cls-10" d="M67.4,49.43a1.62,1.62,0,0,1-1-.45s3.71-5,6.84-.18a4.23,4.23,0,0,1-1.08.16,2.57,2.57,0,0,0-2.29-1.31A2.92,2.92,0,0,0,67.4,49.43Z"/><path class="cls-10" d="M93,49a1.67,1.67,0,0,0,1-.47s-3.8-4.95-6.84-.06a4.11,4.11,0,0,0,1.08.14,2.56,2.56,0,0,1,2.26-1.35A2.94,2.94,0,0,1,93,49Z"/><path class="cls-12" d="M87.33,73.29c0,.29-.23.57-.63.81a2.84,2.84,0,0,1-.39.2,2.17,2.17,0,0,0-1-.09c-.14.06-.29.13-.44.18l-.45.17-.56.16a5.62,5.62,0,0,1-.62.15h0a6.25,6.25,0,0,1-.65.12c-.22,0-.44.06-.68.09H80.84l-.15,0-.82-.12-.31-.06L79,74.76a10.93,10.93,0,0,1-1.21-.32L77,74.17a4,4,0,0,0-.9,0L76,74.07a1.14,1.14,0,0,1-.58-.63.4.4,0,0,1,0-.15.54.54,0,0,1,.07-.27,2.48,2.48,0,0,1,1.44-.92h0a16.62,16.62,0,0,1,9,0,2.37,2.37,0,0,1,1.34.89A.54.54,0,0,1,87.33,73.29Z"/><path class="cls-13" d="M86.7,74.1a2.84,2.84,0,0,1-.39.2,12.58,12.58,0,0,1-4.4.78H80.84a11.22,11.22,0,0,1-4.77-1L76,74.07c0-.07.31-.19.45-.22a26.58,26.58,0,0,1,4.81.23A20.8,20.8,0,0,1,86.7,74.1Z"/><path class="cls-14" d="M85.92,72.13a21.13,21.13,0,0,1-9,0,16.62,16.62,0,0,1,9,0Z"/><path class="cls-15" d="M87.33,73.29c0,.29-.23.57-.63.81a2.84,2.84,0,0,1-.39.2,12.58,12.58,0,0,1-4.4.78H80.84a11.22,11.22,0,0,1-4.77-1L76,74.07a1.14,1.14,0,0,1-.58-.63.4.4,0,0,1,0-.15.54.54,0,0,1,.07-.27,2.48,2.48,0,0,1,1.44-.92h0a16.62,16.62,0,0,1,9,0,2.37,2.37,0,0,1,1.34.89A.54.54,0,0,1,87.33,73.29Z"/><path class="cls-16" d="M141.81,242.19a76.39,76.39,0,0,1-3,8.1c-1.57,3.4-.5,6-1.43,9.11s2.74,2.85,3.45-.38.4-4.75,1.07-4.86,2.6,7.76,2.88,10-.19,7.91.66,8.79,2.88-2.29,2.23-8.18-.17-5.76-.17-5.76.56,2.28,1.14,4.74a26.27,26.27,0,0,1,.48,7.13c-.11,1.68,1.6,2.51,2.11,1.61s1.3-6.75.62-9-1.5-6.22-1.5-6.22,2.25,5.27,2.63,6.63-.26,6.54.93,7.49c.49.39,2.06-.13,1.8-7.52a40.62,40.62,0,0,0-1.32-5.84,13.08,13.08,0,0,1,1.8,3.91,36.73,36.73,0,0,1,1,6c.17,2,1.9,1.73,1.9-1.79s-.59-7.41-1.58-9.29S155.09,244,152.15,240Z"/><path class="cls-16" d="M20.22,243.16A71.19,71.19,0,0,0,23,250.71c1.46,3.18.45,5.63,1.33,8.5s-2.55,2.65-3.22-.35-.38-4.44-1-4.54-2.42,7.24-2.68,9.35.17,7.38-.62,8.2-2.68-2.15-2.08-7.63.16-5.38.16-5.38-.52,2.13-1.07,4.43a24.93,24.93,0,0,0-.44,6.64c.1,1.57-1.5,2.34-2,1.51s-1.22-6.3-.58-8.44,1.4-5.79,1.4-5.79-2.09,4.91-2.45,6.17.24,6.1-.87,7c-.46.36-1.92-.12-1.67-7a37.46,37.46,0,0,1,1.23-5.45,12.21,12.21,0,0,0-1.68,3.65,33.72,33.72,0,0,0-.92,5.63c-.16,1.86-1.77,1.61-1.77-1.67s.55-6.91,1.47-8.66,2.27-12,5-15.73Z"/><path class="cls-17" d="M90.62,97.24,72,96.79c.21-.67-3.58-3.56-5.76-2.94C61.24,95.23,52.68,98.43,47.6,102l-2.88,2.77s-14.8,21-21.64,61.54c0,0-7.74,20.88-14,75.72,0,0,5.88,4.56,12.84,1.68,0,0,11.16-39.48,16-64.68a197.85,197.85,0,0,0,12.77-40.2s2.35-1.44,2.59,2.52c0,0,3.22,23.43-2.59,45.93a153.49,153.49,0,0,0-4,25.91l-.07,3.56,20.61,1.83,21.87-.09,25.62-5.76a203.88,203.88,0,0,0-5.73-37.87,90.92,90.92,0,0,1-1.53-15.12s-.45-6.84,1.26-19.62c0,0,1.89-2.7,3.15-.27,0,0,4.86,24.48,11.34,34.92,0,0,.9,2.34,1.62,4,0,0,1.08,14.94,9.18,38L140.62,243s8.16,2.16,13-1.44c0,0-7.68-45.48-11-68,0,0-12-43.2-19.2-57.84l-4.68-10.58-4.23-4.64a63.63,63.63,0,0,0-20.7-7.87C92.59,92.39,91.84,97.38,90.62,97.24Z"/><path class="cls-17" d="M114.7,180.57c2.32,15.59.87,27,.23,30.78a2.09,2.09,0,0,1-1.6,1.69l-24.06,5.42a2.3,2.3,0,0,1-.45,0l-21.55.08h-.19l-18.57-1.65a2.1,2.1,0,0,1-1.91-2.12l0-1.51a1.47,1.47,0,0,0,0-.21,168.53,168.53,0,0,1,.11-26.3c0-.05,0-.1,0-.16,1.94-22.5,6.5-45.28,6.5-45.28-.13-2.07-.83-2.67-1.47-2.77a2.09,2.09,0,0,1-1.5-1.23c-1.49-3.17-4-9.56-3.87-15.94.16-6.12-1.83-11.67-1.74-16a1.93,1.93,0,0,1,.48-1.23c4.32-4.9,16.26-9,21-10.39,1.75-.49,4.52,1.25,5.45,2.32a2,2,0,0,0,1.47.65l17.51.43c1.22.13,2-4.86,3.11-4.66a63.87,63.87,0,0,1,20.43,7.71,2.12,2.12,0,0,1,.46.38l2.4,2.62a2.1,2.1,0,0,1,.32,2.36l-4.83,9.45a2.18,2.18,0,0,0-.23.9l-.55,20.92a2,2,0,0,1-1.47,1.94,1.56,1.56,0,0,0-.39.15,2.06,2.06,0,0,0-1,2.2,74.65,74.65,0,0,1,1.57,12.24c.08,1.32.77,5.9,1.06,7.2C113.28,168.57,114.7,180.57,114.7,180.57Z"/><g id="Brazo_izq" data-name="Brazo izq"><path class="cls-17" d="M23,166.92a.73.73,0,0,0,.63,1s12.57,18.65,14.55,10.69a197.13,197.13,0,0,0,12.77-40.2l.14-.07,1.3-19.81s2.56-15.57-7.39-14.18c0,0-14.8,21-21.64,61.54l-.24.68Z"/><path class="cls-17" d="M37.9,179a2.84,2.84,0,0,0,0,.41,0,0,0,0,0,0,0c-4.81,25.2-15.95,64.62-15.95,64.62C15,247,9.1,242.42,9.1,242.42c5.77-50.68,12.81-72.36,13.85-75.35a6.65,6.65,0,0,1,1.57-.23S38.41,170.36,37.9,179Z"/></g><g id="Brazo_derecho" data-name="Brazo derecho"><path class="cls-17" d="M143.74,181.39c-7.29,4.26-15.57.19-18.76-1.7-.7-1.6-1.51-3.7-1.51-3.7-4.91-7.91-8.89-23.88-10.53-31.15-.12-.56-.24-1.07-.34-1.52,0,0,0,0,0,0-.3-1.39-.46-2.2-.46-2.2a2.69,2.69,0,0,0-.29-.45h0c-9.61-34.76-1.78-37.54-1.78-37.54.94-.92,3.74-1.06,5-1.07l3.93,4.31,4.68,10.58c7.2,14.64,19.2,57.84,19.2,57.84C143.16,176.78,143.38,179,143.74,181.39Z"/><path class="cls-17" d="M153.58,241.51c-4.8,3.6-13,1.44-13,1.44L134,216.67c-6.9-19.64-8.75-33.7-9.13-37.33.94-2.08,3.07-4.47,7.63-5.18,0,0,7-1.69,10.32.93C146.25,198.13,153.58,241.51,153.58,241.51Z"/></g><g id="cuello"><polyline class="cls-18" points="75.97 94.05 84.07 94.05 84.07 215.17 75.97 215.17 75.97 94.05"/><path class="cls-19" d="M64.93,93.91l4.68-6.48,10.7,6.84s-4.4,4.32-5.66,7.74Z"/><path class="cls-19" d="M95.41,93.91l-4.68-6.48L80,94.27s4.41,4.32,5.67,7.74Z"/><path class="cls-20" d="M95.56,93.76l-4.68-6.48L80.17,94.12s4.41,4.32,5.67,7.74Z"/><path class="cls-20" d="M64.66,93.76l4.68-6.48L80,94.12s-4.4,4.32-5.66,7.74Z"/></g><g id="botones"><circle class="cls-21" cx="80.17" cy="109.18" r="1.08"/><circle class="cls-21" cx="80.26" cy="130.78" r="1.08"/><path class="cls-21" d="M78.94,152.38A1.08,1.08,0,1,1,80,153.46,1.08,1.08,0,0,1,78.94,152.38Z"/><circle class="cls-21" cx="80.04" cy="173.98" r="1.08"/><path class="cls-21" d="M78.94,195.58A1.08,1.08,0,1,1,80,196.66,1.08,1.08,0,0,1,78.94,195.58Z"/></g><path class="cls-18" d="M87.45,119.92s10,1.35,15.7,0v2.57a41.54,41.54,0,0,1-15.7-.27Z"/><path class="cls-18" d="M87.45,121.52v12.36a2.88,2.88,0,0,0,2.87,2.87h10a2.87,2.87,0,0,0,2.87-2.87V121.52Zm15.3,12a2.88,2.88,0,0,1-2.87,2.87H90.72a2.88,2.88,0,0,1-2.87-2.87V121.91h14.9Z"/><path class="cls-22" d="M46.87,211.87s23.06,5.44,67.64,0a12.27,12.27,0,0,1,1.06,5.44s-30.75,6.52-69.24,0C46.33,217.31,45.82,213.17,46.87,211.87Z"/><path class="cls-23" d="M77.08,214.78h7.83a7.8,7.8,0,0,1,0,5H77.08A5.37,5.37,0,0,1,77.08,214.78Z"/><path class="cls-1" d="M50.68,218.19l1.14.15a18.81,18.81,0,0,1,1.3-5.53l-1.27-.16A15.39,15.39,0,0,0,50.68,218.19Z"/><path class="cls-1" d="M60.37,219.24l1.14.15a19.2,19.2,0,0,1,1.31-5.59l-1.28-.1A15.39,15.39,0,0,0,60.37,219.24Z"/><path class="cls-1" d="M71.11,220l1,0a35.74,35.74,0,0,1,.71-5.82h-1.1A29.84,29.84,0,0,0,71.11,220Z"/><path class="cls-1" d="M112.23,218l-1.14.15a19.67,19.67,0,0,0-1.3-5.79l1.26-.15A17.55,17.55,0,0,1,112.23,218Z"/><path class="cls-1" d="M102.54,219.2l-1.14.15a24.82,24.82,0,0,0-1.49-6.07l1.29-.09A17.72,17.72,0,0,1,102.54,219.2Z"/><path class="cls-1" d="M91.8,220l-1.06,0a38.46,38.46,0,0,0-.7-6.11l1.1,0A35.52,35.52,0,0,1,91.8,220Z"/><g class="cls-24"><path d="M96.71,124.9a1.42,1.42,0,1,1-1.41-1.42A1.41,1.41,0,0,1,96.71,124.9Z"/><path d="M90.82,127.2c0-.07-.07-.1-.14-.13a1,1,0,0,0-.25,0c-.22,0-.31,0-.31.1,0,.28,1.7.11,1.7.79,0,.43-.57.64-1.38.64s-1.29-.29-1.31-.62h.92a.25.25,0,0,0,.16.14.82.82,0,0,0,.28,0c.24,0,.4,0,.4-.14,0-.28-1.7-.09-1.7-.8,0-.39.54-.59,1.28-.59s1.19.26,1.26.59Z"/><path d="M92.26,128.52v-1.86h2.41v.43H93.23v.27h1.22v.43H93.23v.29h1.5v.44Z"/><path d="M97.15,127.67l0-.42v-.59H98v1.86h-.91l-1-1,0,.42v.59h-.93v-1.86h.91Z"/><path d="M98.37,128.52l1.06-1.86h1l1.06,1.86h-1l-.11-.25h-1l-.12.25Zm1.54-1.3-.3.67h.61Z"/><polygon points="101.68 128.92 95.77 128.92 99.21 135.04 99.97 134.38 97.22 129.78 101.71 129.77 101.68 128.92"/><polygon points="88.91 128.92 94.83 128.92 91.38 135.04 90.63 134.38 93.38 129.78 88.89 129.77 88.91 128.92"/><polygon points="92.04 135.53 95.27 129.96 98.59 135.47 97.71 135.87 95.34 131.63 92.82 135.92 92.04 135.53"/></g><circle class="cls-25" cx="79.8" cy="6.32" r="2.66"/><path class="cls-25" d="M105.65,33.9H54.1a25.78,25.78,0,1,1,51.55,0Z"/><rect class="cls-25" x="70.82" y="5.87" width="18.11" height="16.64" rx="1.73"/><rect class="cls-26" x="54.1" y="33.16" width="51.55" height="0.74"/><polygon class="cls-26" points="71 21.23 70.87 9.75 70.08 10.01 71 21.23"/><polygon class="cls-26" points="88.75 21.23 88.89 9.75 89.68 10.01 88.75 21.23"/><path class="cls-26" d="M76.79,5.87a148.28,148.28,0,0,1-1,25.29S77.26,26,77.13,5.87Z"/><path class="cls-26" d="M82.8,5.87a149.55,149.55,0,0,0,1,25.29S82.33,26,82.47,5.87Z"/><rect class="cls-25" x="53.32" y="33.9" width="53.34" height="2.62"/><circle class="cls-25" cx="53.32" cy="35.21" r="1.31"/><circle class="cls-25" cx="106.66" cy="35.21" r="1.31"/><path class="cls-27" d="M76.46,56.33,59.82,56a1.21,1.21,0,0,1-1.15-1l-1.43-8.7L78.94,45,77.13,55.79A.66.66,0,0,1,76.46,56.33Z"/><path class="cls-28" d="M56.94,46.16l1.46,9a1.44,1.44,0,0,0,1.22,1.2l17.13.37c.33,0,.58-.41.64-.74l1.87-11.09Zm20.19,9.63a.67.67,0,0,1-.66.55L59.82,56a1.2,1.2,0,0,1-1.15-1l-1.42-8.69L78.94,45Z"/><path class="cls-27" d="M83.23,56.33,99.87,56A1.2,1.2,0,0,0,101,55l1.43-8.7L80.75,45l1.82,10.78A.64.64,0,0,0,83.23,56.33Z"/><path class="cls-28" d="M80.44,44.85l1.87,11.09c.06.33.31.75.64.74l17.13-.37a1.44,1.44,0,0,0,1.22-1.2l1.46-9Zm.32.16,21.69,1.28L101,55a1.2,1.2,0,0,1-1.15,1l-16.65.36a.67.67,0,0,1-.66-.55Z"/><path class="cls-29" d="M101.71,46.15h1a.21.21,0,0,1,.21.21v1.92a.21.21,0,0,1-.21.21h-.32a.67.67,0,0,1-.67-.67V46.15A0,0,0,0,1,101.71,46.15Z"/><path class="cls-29" d="M57.22,46.15h.32a.21.21,0,0,1,.21.21v1.92a.21.21,0,0,1-.21.21h-1a0,0,0,0,1,0,0V46.81A.67.67,0,0,1,57.22,46.15Z" transform="translate(114.31 94.63) rotate(-180)"/><path class="cls-26" d="M76.79,5.87a148.28,148.28,0,0,1-1,25.29S77.26,26,77.13,5.87Z"/><path class="cls-29" d="M57.24,46.28s4.94-1.67,23.3-1.58,21.77,1.58,21.77,1.58l-.6.76a77.44,77.44,0,0,0-16.85-.95h-8A64.28,64.28,0,0,0,57.75,47Z"/><path class="cls-29" d="M78.14,47.27h5.44a.8.8,0,0,0,.72-.48l.56-1.34H76.92l.49,1.31A.77.77,0,0,0,78.14,47.27Z"/><path class="cls-30" d="M78.83,46.63A4.62,4.62,0,0,1,78,45.07,1.62,1.62,0,0,0,78.83,46.63Z"/><path class="cls-30" d="M83,46.63a4.62,4.62,0,0,0,.85-1.56A1.62,1.62,0,0,1,83,46.63Z"/></g></svg>