<svg id="Capa_1" data-name="Capa 1" xmlns="http://www.w3.org/2000/svg" viewBox="0 0 487.32 487.32"><defs><style>.cls-1{fill:#fff;}</style></defs><title>rompecabezas</title><path class="cls-1" d="M347.66,0h-288a56.07,56.07,0,0,0-56,56V343.34a56.07,56.07,0,0,0,56,56h88v-16h-88a40,40,0,0,1-40-40V208H71a8.6,8.6,0,0,0,7.33-11.87,32,32,0,1,1,58.59,0A8.3,8.3,0,0,0,144.28,208h51.38v48a46.69,46.69,0,0,0-8-.66,48,48,0,0,0-19.2,92l6.4-14.66A32,32,0,1,1,200.46,274a8,8,0,0,0,11.2-7.33V208h40.68a45.64,45.64,0,0,0-.68,8,48.13,48.13,0,0,0,38.4,47l3.2-15.67A32.1,32.1,0,0,1,267.66,216a31.68,31.68,0,0,1,2.7-12.8A8,8,0,0,0,263,192H211.66V151.32a46.62,46.62,0,0,0,8,.68,48,48,0,1,0,0-96,46.62,46.62,0,0,0-8,.68V16h136a40.05,40.05,0,0,1,40,40V192H336.28A8,8,0,0,0,329,203.2a31.53,31.53,0,0,1,2.71,12.8h16a47.65,47.65,0,0,0-.68-8h48.68a8,8,0,0,0,8-8V56A56.07,56.07,0,0,0,347.66,0Zm-128,72a32,32,0,0,1,0,64,31.68,31.68,0,0,1-12.8-2.7,8,8,0,0,0-11.2,7.32v50.72H155a47.53,47.53,0,0,0,.63-7.34v-.66a48,48,0,0,0-96,0V184a46.31,46.31,0,0,0,.62,7.34H19.66V56a40,40,0,0,1,40-40h136V67.38a8,8,0,0,0,11.2,7.32A31.68,31.68,0,0,1,219.66,72Z"/><path class="cls-1" d="M466.55,343.86l-67.26-46.32-25.83-69a8,8,0,0,0-10.29-4.71l-.44.18-52,23a8,8,0,0,0-4.24,10.18c.86,2.24,1.67,3.93,2.53,5.69a60.75,60.75,0,0,1,2.61,6,32,32,0,1,1-61.87,9.62A8,8,0,0,0,239,270.59l-55.59,20.94a8,8,0,0,0-4.67,10.29l19.95,53.3a45.53,45.53,0,0,0-7.76,2.14,48.11,48.11,0,1,0,41,86.65l14.31,38.21a8,8,0,0,0,10.29,4.69h0l79.26-29.86a43,43,0,0,0,25.34,22.62l5-15.2a27,27,0,0,1-15.29-13.07L375,442.21a55.84,55.84,0,0,0,52.68,37.13v-16a40.25,40.25,0,0,1-40-40,8,8,0,0,0-2.35-5.66l-27.85-27.86a11.86,11.86,0,0,1-1.1-15.43,11.69,11.69,0,0,1,8.6-4.69,11.53,11.53,0,0,1,9.19,3.44L430,429l11.31-11.31-16.52-16.53a55.78,55.78,0,0,0-.72-37.4l-15-40L457.43,357a24.07,24.07,0,0,1,10.23,19.66V480h16V376.66A40.07,40.07,0,0,0,466.55,343.86Zm-57.46,25.5a40.12,40.12,0,0,1,2.34,18.42l-26-26a27.8,27.8,0,0,0-39.81,38.82l.5.5,25.3,25.3L258.39,469l-15.24-40.74a8,8,0,0,0-5.76-5,7.77,7.77,0,0,0-1.73-.19,8,8,0,0,0-5.6,2.28,32,32,0,1,1-33.51-53.11,30.76,30.76,0,0,1,7.92-1.8,28,28,0,0,1,5-.16,8,8,0,0,0,8.41-7.57,7.9,7.9,0,0,0-.5-3.23L196.5,303.71l38.09-14.34a48,48,0,1,0,92.06-26.07c-.74-2-1.4-3.52-2-4.92l36.8-16.29Z"/></svg>